<?xml version="1.0" encoding="UTF-8" standalone="no"?> <svg xmlns="http://www.w3.org/2000/svg" xmlns:xlink="http://www.w3.org/1999/xlink" preserveAspectRatio="xMidYMid meet" viewBox="0 0 640 640" width="640" height="640"> <defs> <path d="M379.12 130.63L379.5 130.67L379.89 130.72L380.26 130.79L380.63 130.87L381 130.97L381.36 131.08L381.71 131.21L382.06 131.35L382.4 131.5L382.73 131.66L383.05 131.84L383.37 132.03L383.68 132.23L383.98 132.44L384.28 132.66L384.56 132.9L384.83 133.14L385.1 133.4L385.35 133.66L385.6 133.94L385.83 134.22L386.05 134.51L386.27 134.81L386.47 135.12L386.66 135.44L386.83 135.77L387 136.1L387.15 136.44L387.29 136.78L387.41 137.14L387.52 137.5L387.62 137.86L387.71 138.23L387.78 138.61L387.83 138.99L387.87 139.38L387.89 139.77L387.9 140.16L387.9 223.5L542.88 223.5L543.27 223.5L543.66 223.53L544.05 223.57L544.43 223.62L544.81 223.69L545.18 223.77L545.54 223.87L545.9 223.98L546.25 224.11L546.6 224.25L546.94 224.4L547.27 224.56L547.6 224.74L547.92 224.93L548.23 225.13L548.53 225.34L548.82 225.56L549.1 225.8L549.38 226.04L549.64 226.3L549.9 226.56L550.14 226.84L550.37 227.12L550.6 227.41L550.81 227.71L551.01 228.02L551.2 228.34L551.38 228.67L551.54 229L551.69 229.34L551.83 229.68L551.96 230.04L552.07 230.4L552.17 230.76L552.25 231.13L552.32 231.51L552.37 231.89L552.41 232.28L552.44 232.67L552.44 233.06L552.44 316.57L601.93 316.57L602.32 316.58L602.71 316.6L603.1 316.64L603.48 316.69L603.85 316.76L604.22 316.85L604.59 316.94L604.95 317.06L605.3 317.18L605.65 317.32L605.99 317.47L606.32 317.64L606.65 317.81L606.96 318L607.27 318.2L607.58 318.41L607.87 318.64L608.15 318.87L608.43 319.11L608.69 319.37L608.95 319.63L609.19 319.91L609.42 320.19L609.65 320.48L609.86 320.78L610.06 321.09L610.25 321.41L610.43 321.74L610.59 322.07L610.74 322.41L610.88 322.76L611.01 323.11L611.12 323.47L611.22 323.84L611.3 324.21L611.37 324.58L611.43 324.96L611.47 325.35L611.49 325.74L611.5 326.14L611.5 453.84L611.49 454.23L611.47 454.62L611.43 455.01L611.37 455.39L611.3 455.76L611.22 456.13L611.12 456.5L611.01 456.86L610.89 457.21L610.75 457.56L610.6 457.9L610.43 458.23L610.25 458.56L610.07 458.87L609.86 459.18L609.65 459.49L609.43 459.78L609.2 460.06L608.95 460.34L608.7 460.6L608.43 460.85L608.16 461.1L607.87 461.33L607.58 461.56L607.28 461.77L606.97 461.97L606.65 462.16L606.33 462.33L606 462.5L605.66 462.65L605.31 462.79L604.96 462.91L604.6 463.03L604.23 463.12L603.86 463.21L603.48 463.28L603.1 463.33L602.72 463.37L602.33 463.39L601.93 463.4L540.16 463.4L539.88 465.24L539.53 467.06L539.12 468.85L538.64 470.62L538.11 472.36L537.51 474.08L536.85 475.77L536.14 477.42L535.37 479.05L534.54 480.64L533.66 482.2L532.72 483.73L531.74 485.22L530.7 486.67L529.61 488.08L528.48 489.46L527.3 490.79L526.07 492.08L524.8 493.33L523.49 494.53L522.14 495.68L520.74 496.79L519.3 497.85L517.83 498.86L516.32 499.82L514.78 500.72L513.2 501.57L511.59 502.37L509.94 503.11L508.27 503.79L506.57 504.41L504.83 504.98L503.08 505.48L501.29 505.92L499.49 506.29L497.66 506.6L495.8 506.84L493.93 507.02L492.04 507.12L490.13 507.16L488.22 507.12L486.33 507.02L484.46 506.84L482.61 506.6L480.77 506.29L478.97 505.92L477.18 505.48L475.43 504.98L473.69 504.41L471.99 503.79L470.32 503.11L468.67 502.37L467.06 501.57L465.48 500.72L463.94 499.82L462.43 498.86L460.96 497.85L459.52 496.79L458.13 495.68L456.77 494.53L455.46 493.33L454.19 492.08L452.96 490.79L451.78 489.46L450.65 488.08L449.56 486.67L448.53 485.22L447.54 483.73L446.61 482.2L445.73 480.64L444.9 479.05L444.13 477.42L443.41 475.77L442.76 474.08L442.16 472.36L441.62 470.62L441.15 468.85L440.74 467.06L440.39 465.24L440.11 463.4L215.76 463.4L215.48 465.24L215.13 467.06L214.72 468.85L214.25 470.62L213.71 472.36L213.11 474.08L212.46 475.77L211.74 477.42L210.97 479.05L210.14 480.64L209.26 482.2L208.33 483.73L207.34 485.22L206.31 486.67L205.22 488.08L204.09 489.46L202.91 490.79L201.69 492.08L200.42 493.33L199.1 494.53L197.75 495.68L196.36 496.79L194.92 497.85L193.45 498.86L191.94 499.82L190.4 500.72L188.82 501.57L187.21 502.37L185.57 503.11L183.9 503.79L182.2 504.41L180.47 504.98L178.71 505.48L176.93 505.92L175.12 506.29L173.29 506.6L171.44 506.84L169.57 507.02L167.68 507.12L165.77 507.16L163.87 507.12L161.98 507.02L160.11 506.84L158.26 506.6L156.43 506.29L154.62 505.92L152.84 505.48L151.08 504.98L149.35 504.41L147.65 503.79L145.98 503.11L144.34 502.37L142.73 501.57L141.15 500.72L139.61 499.82L138.1 498.86L136.63 497.85L135.19 496.79L133.8 495.68L132.44 494.53L131.13 493.33L129.86 492.08L128.64 490.79L127.46 489.46L126.33 488.08L125.24 486.67L124.2 485.22L123.22 483.73L122.29 482.2L121.41 480.64L120.58 479.05L119.81 477.42L119.09 475.77L118.44 474.08L117.84 472.36L117.3 470.62L116.83 468.85L116.42 467.06L116.07 465.24L115.79 463.4L35.83 463.4L35.43 463.39L35.04 463.37L34.66 463.33L34.28 463.28L33.9 463.21L33.53 463.12L33.16 463.03L32.8 462.91L32.45 462.79L32.1 462.65L31.76 462.5L31.43 462.33L31.11 462.16L30.79 461.97L30.48 461.77L30.18 461.56L29.88 461.33L29.6 461.1L29.33 460.85L29.06 460.6L28.81 460.34L28.56 460.06L28.33 459.78L28.11 459.49L27.9 459.18L27.69 458.87L27.51 458.56L27.33 458.23L27.17 457.9L27.01 457.56L26.87 457.21L26.75 456.86L26.64 456.5L26.54 456.13L26.46 455.76L26.39 455.39L26.33 455.01L26.29 454.62L26.27 454.23L26.26 453.84L26.26 140.16L26.27 139.77L26.29 139.38L26.33 138.99L26.39 138.61L26.46 138.23L26.54 137.86L26.64 137.5L26.75 137.14L26.87 136.78L27.01 136.44L27.17 136.1L27.33 135.77L27.51 135.44L27.69 135.12L27.9 134.81L28.11 134.51L28.33 134.22L28.56 133.94L28.81 133.66L29.06 133.4L29.33 133.14L29.6 132.9L29.88 132.66L30.18 132.44L30.48 132.23L30.79 132.03L31.11 131.84L31.43 131.66L31.76 131.5L32.1 131.35L32.45 131.21L32.8 131.08L33.16 130.97L33.53 130.87L33.9 130.79L34.28 130.72L34.66 130.67L35.04 130.63L35.43 130.6L35.83 130.6L378.33 130.6L378.73 130.6L379.12 130.63ZM163.14 425.38L161.85 425.52L160.57 425.7L159.31 425.94L158.06 426.23L156.84 426.57L155.64 426.96L154.45 427.39L153.29 427.87L152.16 428.39L151.05 428.95L149.96 429.56L148.9 430.21L147.87 430.9L146.87 431.63L145.9 432.4L144.96 433.2L144.05 434.04L143.18 434.91L142.34 435.82L141.54 436.76L140.77 437.73L140.04 438.73L139.35 439.77L138.7 440.82L138.1 441.91L137.53 443.02L137.01 444.16L136.53 445.32L136.1 446.5L135.71 447.71L135.38 448.93L135.09 450.18L134.85 451.44L134.66 452.72L134.53 454.01L134.44 455.32L134.42 456.65L134.44 457.97L134.53 459.28L134.66 460.58L134.85 461.86L135.09 463.12L135.38 464.37L135.71 465.59L136.1 466.8L136.53 467.98L137.01 469.14L137.53 470.28L138.1 471.39L138.7 472.47L139.35 473.53L140.04 474.56L140.77 475.57L141.54 476.54L142.34 477.48L143.18 478.38L144.05 479.26L144.96 480.1L145.9 480.9L146.87 481.67L147.87 482.4L148.9 483.09L149.96 483.74L151.05 484.34L152.16 484.91L153.29 485.43L154.45 485.91L155.64 486.34L156.84 486.73L158.06 487.07L159.31 487.35L160.57 487.59L161.85 487.78L163.14 487.92L164.45 488L165.77 488.03L167.1 488L168.41 487.92L169.7 487.78L170.98 487.59L172.24 487.35L173.49 487.07L174.71 486.73L175.92 486.34L177.1 485.91L178.26 485.43L179.39 484.91L180.51 484.34L181.59 483.74L182.65 483.09L183.68 482.4L184.68 481.67L185.65 480.9L186.59 480.1L187.5 479.26L188.37 478.38L189.21 477.48L190.01 476.54L190.78 475.57L191.51 474.56L192.2 473.53L192.85 472.47L193.45 471.39L194.02 470.28L194.54 469.14L195.02 467.98L195.45 466.8L195.84 465.59L196.17 464.37L196.46 463.12L196.7 461.86L196.89 460.58L197.02 459.28L197.1 457.97L197.13 456.65L197.1 455.32L197.02 454.01L196.89 452.72L196.7 451.44L196.46 450.18L196.17 448.93L195.84 447.71L195.45 446.5L195.02 445.32L194.54 444.16L194.02 443.02L193.45 441.91L192.84 440.82L192.2 439.77L191.51 438.73L190.78 437.73L190.01 436.76L189.21 435.82L188.37 434.91L187.5 434.04L186.59 433.2L185.65 432.4L184.68 431.63L183.68 430.9L182.65 430.21L181.59 429.56L180.5 428.95L179.39 428.39L178.26 427.87L177.1 427.39L175.91 426.96L174.71 426.57L173.49 426.23L172.24 425.94L170.98 425.7L169.7 425.52L168.41 425.38L167.1 425.3L165.77 425.27L164.45 425.3L163.14 425.38ZM487.49 425.38L486.2 425.52L484.92 425.7L483.65 425.94L482.41 426.23L481.18 426.57L479.98 426.96L478.79 427.39L477.63 427.87L476.49 428.39L475.38 428.95L474.3 429.56L473.24 430.21L472.2 430.9L471.2 431.63L470.23 432.4L469.29 433.2L468.38 434.04L467.51 434.91L466.67 435.82L465.86 436.76L465.1 437.73L464.37 438.73L463.68 439.77L463.03 440.82L462.42 441.91L461.85 443.02L461.33 444.16L460.85 445.32L460.42 446.5L460.03 447.71L459.69 448.93L459.41 450.18L459.17 451.44L458.98 452.72L458.84 454.01L458.76 455.32L458.73 456.65L458.76 457.97L458.84 459.28L458.98 460.58L459.17 461.86L459.41 463.12L459.69 464.37L460.03 465.59L460.42 466.8L460.85 467.98L461.33 469.14L461.85 470.28L462.42 471.39L463.03 472.47L463.68 473.53L464.37 474.56L465.1 475.57L465.86 476.54L466.67 477.48L467.51 478.38L468.38 479.26L469.29 480.1L470.23 480.9L471.2 481.67L472.2 482.4L473.24 483.09L474.3 483.74L475.38 484.34L476.49 484.91L477.63 485.43L478.79 485.91L479.98 486.34L481.18 486.73L482.41 487.07L483.65 487.35L484.92 487.59L486.2 487.78L487.49 487.92L488.81 488L490.13 488.03L491.46 488L492.77 487.92L494.06 487.78L495.34 487.59L496.61 487.35L497.85 487.07L499.08 486.73L500.28 486.34L501.47 485.91L502.63 485.43L503.76 484.91L504.88 484.34L505.96 483.74L507.02 483.09L508.06 482.4L509.06 481.67L510.03 480.9L510.97 480.1L511.88 479.26L512.76 478.38L513.6 477.48L514.4 476.54L515.17 475.57L515.9 474.56L516.59 473.53L517.24 472.47L517.85 471.39L518.41 470.28L518.94 469.14L519.41 467.98L519.85 466.8L520.23 465.59L520.57 464.37L520.86 463.12L521.1 461.86L521.29 460.58L521.42 459.28L521.51 457.97L521.53 456.65L521.51 455.32L521.42 454.01L521.29 452.72L521.1 451.44L520.86 450.18L520.57 448.93L520.23 447.71L519.85 446.5L519.42 445.32L518.94 444.16L518.41 443.02L517.85 441.91L517.24 440.82L516.59 439.77L515.9 438.73L515.17 437.73L514.4 436.76L513.6 435.82L512.76 434.91L511.88 434.04L510.97 433.2L510.03 432.4L509.06 431.63L508.06 430.9L507.03 430.21L505.97 429.56L504.88 428.95L503.77 428.39L502.63 427.87L501.47 427.39L500.28 426.96L499.08 426.57L497.85 426.23L496.61 425.94L495.34 425.7L494.06 425.52L492.77 425.38L491.46 425.3L490.13 425.27L488.81 425.3L487.49 425.38ZM45.39 444.27L116.89 444.27L117.33 442.64L117.82 441.03L118.37 439.45L118.96 437.89L119.61 436.35L120.31 434.84L121.05 433.36L121.84 431.91L122.67 430.48L123.55 429.08L124.47 427.72L125.44 426.39L126.44 425.09L127.49 423.82L128.58 422.59L129.7 421.4L130.87 420.24L132.07 419.12L133.3 418.04L134.57 417L135.88 416L137.21 415.05L138.58 414.13L139.98 413.26L141.41 412.44L142.87 411.66L144.36 410.93L145.87 410.24L147.41 409.61L148.97 409.02L150.56 408.49L152.17 408.01L153.81 407.58L155.46 407.2L157.14 406.88L158.83 406.62L160.54 406.41L162.27 406.26L164.01 406.17L165.77 406.14L167.53 406.17L169.28 406.26L171.01 406.41L172.72 406.62L174.41 406.88L176.09 407.2L177.74 407.58L179.38 408.01L180.99 408.49L182.58 409.02L184.14 409.61L185.68 410.24L187.19 410.93L188.68 411.66L190.14 412.44L191.57 413.26L192.97 414.13L194.34 415.05L195.68 416L196.98 417L198.25 418.04L199.49 419.12L200.69 420.24L201.85 421.4L202.98 422.59L204.06 423.82L205.11 425.09L206.12 426.39L207.08 427.72L208.01 429.08L208.89 430.48L209.72 431.9L210.51 433.36L211.25 434.84L211.94 436.35L212.59 437.88L213.19 439.44L213.73 441.03L214.23 442.63L214.67 444.26L368.77 444.26L368.77 149.73L45.39 149.73L45.39 444.27ZM387.91 444.26L441.2 444.26L441.65 442.63L442.14 441.03L442.69 439.44L443.28 437.88L443.93 436.35L444.62 434.84L445.37 433.35L446.16 431.9L446.99 430.47L447.87 429.08L448.79 427.71L449.76 426.38L450.77 425.08L451.81 423.82L452.9 422.59L454.03 421.39L455.19 420.24L456.39 419.12L457.63 418.04L458.9 417L460.21 416L461.54 415.04L462.91 414.13L464.32 413.26L465.75 412.43L467.21 411.65L468.69 410.92L470.21 410.24L471.75 409.6L473.32 409.02L474.91 408.48L476.52 408L478.15 407.57L479.81 407.19L481.48 406.87L483.18 406.61L484.89 406.4L486.62 406.25L488.37 406.16L490.13 406.13L491.89 406.16L493.64 406.25L495.37 406.4L497.08 406.61L498.78 406.87L500.45 407.19L502.11 407.57L503.74 408L505.36 408.48L506.95 409.02L508.51 409.6L510.05 410.24L511.57 410.92L513.05 411.65L514.51 412.43L515.95 413.26L517.35 414.13L518.72 415.04L520.06 416L521.36 417L522.63 418.04L523.87 419.12L525.07 420.24L526.23 421.39L527.36 422.59L528.45 423.82L529.5 425.08L530.51 426.38L531.47 427.71L532.39 429.08L533.27 430.47L534.11 431.9L534.9 433.35L535.64 434.84L536.34 436.35L536.98 437.88L537.58 439.44L538.13 441.03L538.62 442.63L539.06 444.26L592.37 444.26L592.37 335.7L542.88 335.7L542.49 335.69L542.1 335.67L541.71 335.63L541.33 335.58L540.96 335.51L540.59 335.42L540.22 335.33L539.86 335.21L539.51 335.09L539.16 334.95L538.82 334.8L538.49 334.63L538.16 334.46L537.85 334.27L537.54 334.07L537.24 333.85L536.94 333.63L536.66 333.4L536.39 333.15L536.12 332.9L535.87 332.63L535.62 332.36L535.39 332.08L535.16 331.78L534.95 331.48L534.75 331.17L534.56 330.86L534.39 330.53L534.22 330.2L534.07 329.86L533.93 329.51L533.81 329.16L533.69 328.8L533.6 328.43L533.51 328.06L533.44 327.69L533.39 327.31L533.35 326.92L533.33 326.53L533.32 326.14L533.32 242.63L387.91 242.63L387.91 444.26Z" id="c7hkbJLjr"></path> </defs> <g> <g> <g> <g> <filter id="shadow9720596" x="17.26" y="121.6" width="604.24" height="395.56" filterUnits="userSpaceOnUse" primitiveUnits="userSpaceOnUse"> <feFlood></feFlood> <feComposite in2="SourceAlpha" operator="in"></feComposite> <feGaussianBlur stdDeviation="1"></feGaussianBlur> <feOffset dx="1" dy="1" result="afterOffset"></feOffset> <feFlood flood-color="#000000" flood-opacity="0.5"></feFlood> <feComposite in2="afterOffset" operator="in"></feComposite> <feMorphology operator="dilate" radius="1"></feMorphology> <feComposite in2="SourceAlpha" operator="out"></feComposite> </filter> <path d="M379.12 130.63L379.5 130.67L379.89 130.72L380.26 130.79L380.63 130.87L381 130.97L381.36 131.08L381.71 131.21L382.06 131.35L382.4 131.5L382.73 131.66L383.05 131.84L383.37 132.03L383.68 132.23L383.98 132.44L384.28 132.66L384.56 132.9L384.83 133.14L385.1 133.4L385.35 133.66L385.6 133.94L385.83 134.22L386.05 134.51L386.27 134.81L386.47 135.12L386.66 135.44L386.83 135.77L387 136.1L387.15 136.44L387.29 136.78L387.41 137.14L387.52 137.5L387.62 137.86L387.71 138.23L387.78 138.61L387.83 138.99L387.87 139.38L387.89 139.77L387.9 140.16L387.9 223.5L542.88 223.5L543.27 223.5L543.66 223.53L544.05 223.57L544.43 223.62L544.81 223.69L545.18 223.77L545.54 223.87L545.9 223.98L546.25 224.11L546.6 224.25L546.94 224.4L547.27 224.56L547.6 224.74L547.92 224.93L548.23 225.13L548.53 225.34L548.82 225.56L549.1 225.8L549.38 226.04L549.64 226.3L549.9 226.56L550.14 226.84L550.37 227.12L550.6 227.41L550.81 227.71L551.01 228.02L551.2 228.34L551.38 228.67L551.54 229L551.69 229.34L551.83 229.68L551.96 230.04L552.07 230.4L552.17 230.76L552.25 231.13L552.32 231.51L552.37 231.89L552.41 232.28L552.44 232.67L552.44 233.06L552.44 316.57L601.93 316.57L602.32 316.58L602.71 316.6L603.1 316.64L603.48 316.69L603.85 316.76L604.22 316.85L604.59 316.94L604.95 317.06L605.3 317.18L605.65 317.32L605.99 317.47L606.32 317.64L606.65 317.81L606.96 318L607.27 318.2L607.58 318.41L607.87 318.64L608.15 318.87L608.43 319.11L608.69 319.37L608.95 319.63L609.19 319.91L609.42 320.19L609.65 320.48L609.86 320.78L610.06 321.09L610.25 321.41L610.43 321.74L610.59 322.07L610.74 322.41L610.88 322.76L611.01 323.11L611.12 323.47L611.22 323.84L611.3 324.21L611.37 324.58L611.43 324.96L611.47 325.35L611.49 325.74L611.5 326.14L611.5 453.84L611.49 454.23L611.47 454.62L611.43 455.01L611.37 455.39L611.3 455.76L611.22 456.13L611.12 456.5L611.01 456.86L610.89 457.21L610.75 457.56L610.6 457.9L610.43 458.23L610.25 458.56L610.07 458.87L609.86 459.18L609.65 459.49L609.43 459.78L609.2 460.06L608.95 460.34L608.7 460.6L608.43 460.85L608.16 461.1L607.87 461.33L607.58 461.56L607.28 461.77L606.97 461.97L606.65 462.16L606.33 462.33L606 462.5L605.66 462.65L605.31 462.79L604.96 462.91L604.6 463.03L604.23 463.12L603.86 463.21L603.48 463.28L603.1 463.33L602.72 463.37L602.33 463.39L601.93 463.4L540.16 463.4L539.88 465.24L539.53 467.06L539.12 468.85L538.64 470.62L538.11 472.36L537.51 474.08L536.85 475.77L536.14 477.42L535.37 479.05L534.54 480.64L533.66 482.2L532.72 483.73L531.74 485.22L530.7 486.67L529.61 488.08L528.48 489.46L527.3 490.79L526.07 492.08L524.8 493.33L523.49 494.53L522.14 495.68L520.74 496.79L519.3 497.85L517.83 498.86L516.32 499.82L514.78 500.72L513.2 501.57L511.59 502.37L509.94 503.11L508.27 503.79L506.57 504.41L504.83 504.98L503.08 505.48L501.29 505.92L499.49 506.29L497.66 506.6L495.8 506.84L493.93 507.02L492.04 507.12L490.13 507.16L488.22 507.12L486.33 507.02L484.46 506.84L482.61 506.6L480.77 506.29L478.97 505.92L477.18 505.48L475.43 504.98L473.69 504.41L471.99 503.79L470.32 503.11L468.67 502.37L467.06 501.57L465.48 500.72L463.94 499.82L462.43 498.86L460.96 497.85L459.52 496.79L458.13 495.68L456.77 494.53L455.46 493.33L454.19 492.08L452.96 490.79L451.78 489.46L450.65 488.08L449.56 486.67L448.53 485.22L447.54 483.73L446.61 482.2L445.73 480.64L444.9 479.05L444.13 477.42L443.41 475.77L442.76 474.08L442.16 472.36L441.62 470.62L441.15 468.85L440.74 467.06L440.39 465.24L440.11 463.4L215.76 463.4L215.48 465.24L215.13 467.06L214.72 468.85L214.25 470.62L213.71 472.36L213.11 474.08L212.46 475.77L211.74 477.42L210.97 479.05L210.14 480.64L209.26 482.2L208.33 483.73L207.34 485.22L206.31 486.67L205.22 488.08L204.09 489.46L202.91 490.79L201.69 492.08L200.42 493.33L199.1 494.53L197.75 495.68L196.36 496.79L194.92 497.85L193.45 498.86L191.94 499.82L190.4 500.72L188.82 501.57L187.21 502.37L185.57 503.11L183.9 503.79L182.2 504.41L180.47 504.98L178.71 505.48L176.93 505.92L175.12 506.29L173.29 506.6L171.44 506.84L169.57 507.02L167.68 507.12L165.77 507.16L163.87 507.12L161.98 507.02L160.11 506.84L158.26 506.6L156.43 506.29L154.62 505.92L152.84 505.48L151.08 504.98L149.35 504.41L147.65 503.79L145.98 503.11L144.34 502.37L142.73 501.57L141.15 500.72L139.61 499.82L138.1 498.86L136.63 497.85L135.19 496.79L133.8 495.68L132.44 494.53L131.13 493.33L129.86 492.08L128.64 490.79L127.46 489.46L126.33 488.08L125.24 486.67L124.2 485.22L123.22 483.73L122.29 482.2L121.41 480.64L120.58 479.05L119.81 477.42L119.09 475.77L118.44 474.08L117.84 472.36L117.3 470.62L116.83 468.85L116.42 467.06L116.07 465.24L115.79 463.4L35.83 463.4L35.43 463.39L35.04 463.37L34.66 463.33L34.28 463.28L33.9 463.21L33.53 463.12L33.16 463.03L32.8 462.91L32.45 462.79L32.1 462.65L31.76 462.5L31.43 462.33L31.11 462.16L30.79 461.97L30.48 461.77L30.18 461.56L29.88 461.33L29.6 461.1L29.33 460.85L29.06 460.6L28.81 460.34L28.56 460.06L28.33 459.78L28.11 459.49L27.9 459.18L27.69 458.87L27.51 458.56L27.33 458.23L27.17 457.9L27.01 457.56L26.87 457.21L26.75 456.86L26.64 456.5L26.54 456.13L26.46 455.76L26.39 455.39L26.33 455.01L26.29 454.62L26.27 454.23L26.26 453.84L26.26 140.16L26.27 139.77L26.29 139.38L26.33 138.99L26.39 138.61L26.46 138.23L26.54 137.86L26.64 137.5L26.75 137.14L26.87 136.78L27.01 136.44L27.17 136.1L27.33 135.77L27.51 135.44L27.69 135.12L27.9 134.81L28.11 134.51L28.33 134.22L28.56 133.94L28.81 133.66L29.06 133.4L29.33 133.14L29.6 132.9L29.88 132.66L30.18 132.44L30.48 132.23L30.79 132.03L31.11 131.84L31.43 131.66L31.76 131.5L32.1 131.35L32.45 131.21L32.8 131.08L33.16 130.97L33.53 130.87L33.9 130.79L34.28 130.72L34.66 130.67L35.04 130.63L35.43 130.6L35.83 130.6L378.33 130.6L378.73 130.6L379.12 130.63ZM163.14 425.38L161.85 425.52L160.57 425.7L159.31 425.94L158.06 426.23L156.84 426.57L155.64 426.96L154.45 427.39L153.29 427.87L152.16 428.39L151.05 428.95L149.96 429.56L148.9 430.21L147.87 430.9L146.87 431.63L145.9 432.4L144.96 433.2L144.05 434.04L143.18 434.91L142.34 435.82L141.54 436.76L140.77 437.73L140.04 438.73L139.35 439.77L138.7 440.82L138.1 441.91L137.53 443.02L137.01 444.16L136.53 445.32L136.1 446.5L135.71 447.71L135.38 448.93L135.09 450.18L134.85 451.44L134.66 452.72L134.53 454.01L134.44 455.32L134.42 456.65L134.44 457.97L134.53 459.28L134.66 460.58L134.85 461.86L135.09 463.12L135.38 464.37L135.71 465.59L136.1 466.8L136.53 467.98L137.01 469.14L137.53 470.28L138.1 471.39L138.7 472.47L139.35 473.53L140.04 474.56L140.77 475.57L141.54 476.54L142.34 477.48L143.18 478.38L144.05 479.26L144.96 480.1L145.9 480.9L146.87 481.67L147.87 482.4L148.9 483.09L149.96 483.74L151.05 484.34L152.16 484.91L153.29 485.43L154.45 485.91L155.64 486.34L156.84 486.73L158.06 487.07L159.31 487.35L160.57 487.59L161.85 487.78L163.14 487.92L164.45 488L165.77 488.03L167.1 488L168.41 487.92L169.7 487.78L170.98 487.59L172.24 487.35L173.49 487.07L174.71 486.73L175.92 486.34L177.1 485.91L178.26 485.43L179.39 484.91L180.51 484.34L181.59 483.74L182.65 483.09L183.68 482.4L184.68 481.67L185.65 480.9L186.59 480.1L187.5 479.26L188.37 478.38L189.21 477.48L190.01 476.54L190.78 475.57L191.51 474.56L192.2 473.53L192.85 472.47L193.45 471.39L194.02 470.28L194.54 469.14L195.02 467.98L195.45 466.8L195.84 465.59L196.17 464.37L196.46 463.12L196.7 461.86L196.89 460.58L197.02 459.28L197.1 457.97L197.13 456.65L197.1 455.32L197.02 454.01L196.89 452.72L196.7 451.44L196.46 450.18L196.17 448.93L195.84 447.71L195.45 446.5L195.02 445.32L194.54 444.16L194.02 443.02L193.45 441.91L192.84 440.82L192.2 439.77L191.51 438.73L190.78 437.73L190.01 436.76L189.21 435.82L188.37 434.91L187.5 434.04L186.59 433.2L185.65 432.4L184.68 431.63L183.68 430.9L182.65 430.21L181.59 429.56L180.5 428.95L179.39 428.39L178.26 427.87L177.1 427.39L175.91 426.96L174.71 426.57L173.49 426.23L172.24 425.94L170.98 425.7L169.7 425.52L168.41 425.38L167.1 425.3L165.77 425.27L164.45 425.3L163.14 425.38ZM487.49 425.38L486.2 425.52L484.92 425.7L483.65 425.94L482.41 426.23L481.18 426.57L479.98 426.96L478.79 427.39L477.63 427.87L476.49 428.39L475.38 428.95L474.3 429.56L473.24 430.21L472.2 430.9L471.2 431.63L470.23 432.4L469.29 433.2L468.38 434.04L467.51 434.91L466.67 435.82L465.86 436.76L465.1 437.73L464.37 438.73L463.68 439.77L463.03 440.82L462.42 441.91L461.85 443.02L461.33 444.16L460.85 445.32L460.42 446.5L460.03 447.71L459.69 448.93L459.41 450.18L459.17 451.44L458.98 452.72L458.84 454.01L458.76 455.32L458.73 456.65L458.76 457.97L458.84 459.28L458.98 460.58L459.17 461.86L459.41 463.12L459.69 464.37L460.03 465.59L460.42 466.8L460.85 467.98L461.33 469.14L461.85 470.28L462.42 471.39L463.03 472.47L463.68 473.53L464.37 474.56L465.1 475.57L465.86 476.54L466.67 477.48L467.51 478.38L468.38 479.26L469.29 480.1L470.23 480.9L471.2 481.67L472.2 482.4L473.24 483.09L474.3 483.74L475.38 484.34L476.49 484.91L477.63 485.43L478.79 485.91L479.98 486.34L481.18 486.73L482.41 487.07L483.65 487.35L484.92 487.59L486.2 487.78L487.49 487.92L488.81 488L490.13 488.03L491.46 488L492.77 487.92L494.06 487.78L495.34 487.59L496.61 487.35L497.85 487.07L499.08 486.73L500.28 486.34L501.47 485.91L502.63 485.43L503.76 484.91L504.88 484.34L505.96 483.74L507.02 483.09L508.06 482.4L509.06 481.67L510.03 480.9L510.97 480.1L511.88 479.26L512.76 478.38L513.6 477.48L514.4 476.54L515.17 475.57L515.9 474.56L516.59 473.53L517.24 472.47L517.85 471.39L518.41 470.28L518.94 469.14L519.41 467.98L519.85 466.8L520.23 465.59L520.57 464.37L520.86 463.12L521.1 461.86L521.29 460.58L521.42 459.28L521.51 457.97L521.53 456.65L521.51 455.32L521.42 454.01L521.29 452.72L521.1 451.44L520.86 450.18L520.57 448.93L520.23 447.71L519.85 446.5L519.42 445.32L518.94 444.16L518.41 443.02L517.85 441.91L517.24 440.82L516.59 439.77L515.9 438.73L515.17 437.73L514.4 436.76L513.6 435.82L512.76 434.91L511.88 434.04L510.97 433.2L510.03 432.4L509.06 431.63L508.06 430.9L507.03 430.21L505.97 429.56L504.88 428.95L503.77 428.39L502.63 427.87L501.47 427.39L500.28 426.96L499.08 426.57L497.85 426.23L496.61 425.94L495.34 425.7L494.06 425.52L492.77 425.38L491.46 425.3L490.13 425.27L488.81 425.3L487.49 425.38ZM45.39 444.27L116.89 444.27L117.33 442.64L117.82 441.03L118.37 439.45L118.96 437.89L119.61 436.35L120.31 434.84L121.05 433.36L121.84 431.91L122.67 430.48L123.55 429.08L124.47 427.72L125.44 426.39L126.44 425.09L127.49 423.82L128.58 422.59L129.7 421.4L130.87 420.24L132.07 419.12L133.3 418.04L134.57 417L135.88 416L137.21 415.05L138.58 414.13L139.98 413.26L141.41 412.44L142.87 411.66L144.36 410.93L145.87 410.24L147.41 409.61L148.97 409.02L150.56 408.49L152.17 408.01L153.81 407.58L155.46 407.2L157.14 406.88L158.83 406.62L160.54 406.41L162.27 406.26L164.01 406.17L165.77 406.14L167.53 406.17L169.28 406.26L171.01 406.41L172.72 406.62L174.41 406.88L176.09 407.2L177.74 407.58L179.38 408.01L180.99 408.49L182.58 409.02L184.14 409.61L185.68 410.24L187.19 410.93L188.68 411.66L190.14 412.44L191.57 413.26L192.97 414.13L194.34 415.05L195.68 416L196.98 417L198.25 418.04L199.49 419.12L200.69 420.24L201.85 421.4L202.98 422.59L204.06 423.82L205.11 425.09L206.12 426.39L207.08 427.72L208.01 429.08L208.89 430.48L209.72 431.9L210.51 433.36L211.25 434.84L211.94 436.35L212.59 437.88L213.19 439.44L213.73 441.03L214.23 442.63L214.67 444.26L368.77 444.26L368.77 149.73L45.39 149.73L45.39 444.27ZM387.91 444.26L441.2 444.26L441.65 442.63L442.14 441.03L442.69 439.44L443.28 437.88L443.93 436.35L444.62 434.84L445.37 433.35L446.16 431.9L446.99 430.47L447.87 429.08L448.79 427.71L449.76 426.38L450.77 425.08L451.81 423.82L452.9 422.59L454.03 421.39L455.19 420.24L456.39 419.12L457.63 418.04L458.9 417L460.21 416L461.54 415.04L462.91 414.13L464.32 413.26L465.75 412.43L467.21 411.65L468.69 410.92L470.21 410.24L471.75 409.6L473.32 409.02L474.91 408.48L476.52 408L478.15 407.57L479.81 407.19L481.48 406.87L483.18 406.61L484.89 406.4L486.62 406.25L488.37 406.16L490.13 406.13L491.89 406.16L493.64 406.25L495.37 406.4L497.08 406.61L498.78 406.87L500.45 407.19L502.11 407.57L503.74 408L505.36 408.48L506.95 409.02L508.51 409.6L510.05 410.24L511.57 410.92L513.05 411.65L514.51 412.43L515.95 413.26L517.35 414.13L518.72 415.04L520.06 416L521.36 417L522.63 418.04L523.87 419.12L525.07 420.24L526.23 421.39L527.36 422.59L528.45 423.82L529.5 425.08L530.51 426.38L531.47 427.71L532.39 429.08L533.27 430.47L534.11 431.9L534.9 433.35L535.64 434.84L536.34 436.35L536.98 437.88L537.58 439.44L538.13 441.03L538.62 442.63L539.06 444.26L592.37 444.26L592.37 335.7L542.88 335.7L542.49 335.69L542.1 335.67L541.71 335.63L541.33 335.58L540.96 335.51L540.59 335.42L540.22 335.33L539.86 335.21L539.51 335.09L539.16 334.95L538.82 334.8L538.49 334.63L538.16 334.46L537.85 334.27L537.54 334.07L537.24 333.85L536.94 333.63L536.66 333.4L536.39 333.15L536.12 332.9L535.87 332.63L535.62 332.36L535.39 332.08L535.16 331.78L534.95 331.48L534.75 331.17L534.56 330.86L534.39 330.53L534.22 330.2L534.07 329.86L533.93 329.51L533.81 329.16L533.69 328.8L533.6 328.43L533.51 328.06L533.44 327.69L533.39 327.31L533.35 326.92L533.33 326.53L533.32 326.14L533.32 242.63L387.91 242.63L387.91 444.26Z" id="a2leebqbqN" fill="white" fill-opacity="1" filter="url(#shadow9720596)"></path> </g> <use xlink:href="#c7hkbJLjr" opacity="1" fill="#e05a45" fill-opacity="1"></use> <g> <use xlink:href="#c7hkbJLjr" opacity="1" fill-opacity="0" stroke="#000000" stroke-width="1" stroke-opacity="0"></use> </g> </g> </g> </g> </svg> 