<?xml version="1.0" encoding="UTF-8" standalone="no"?> <svg xmlns="http://www.w3.org/2000/svg" xmlns:xlink="http://www.w3.org/1999/xlink" preserveAspectRatio="xMidYMid meet" viewBox="0 0 640 640" width="640" height="640"> <defs> <path d="M387.69 12.14L388.07 12.19L388.44 12.24L388.81 12.31L389.17 12.4L389.53 12.5L389.88 12.62L390.23 12.75L390.58 12.89L390.92 13.04L391.25 13.21L391.57 13.39L391.89 13.59L392.2 13.79L392.5 14.01L392.8 14.24L393.08 14.47L393.36 14.72L393.63 14.98L393.88 15.25L394.13 15.52L394.37 15.81L394.6 16.1L394.81 16.41L395.02 16.72L395.21 17.03L395.39 17.36L395.56 17.69L395.72 18.03L395.86 18.37L395.99 18.72L396.1 19.08L396.21 19.43L396.29 19.8L396.36 20.17L396.42 20.54L396.46 20.91L396.49 21.29L396.49 21.67L396.49 67.57L396.49 67.95L396.46 68.33L396.42 68.7L396.36 69.08L396.29 69.44L396.21 69.81L396.1 70.17L395.99 70.52L395.86 70.87L395.72 71.22L395.56 71.55L395.39 71.88L395.21 72.21L395.02 72.53L394.81 72.84L394.6 73.14L394.37 73.43L394.13 73.72L393.88 74L393.63 74.26L393.36 74.52L393.08 74.77L392.8 75.01L392.5 75.23L392.2 75.45L391.89 75.66L391.57 75.85L391.25 76.03L390.92 76.2L390.58 76.35L390.23 76.5L389.88 76.63L389.53 76.74L389.17 76.84L388.81 76.93L388.44 77L388.07 77.06L387.69 77.1L387.31 77.12L386.93 77.13L360.8 77.13L360.8 105.18L370.49 106.46L380.08 108.09L389.54 110.07L398.88 112.39L408.08 115.05L417.14 118.03L426.05 121.33L434.8 124.94L443.4 128.86L451.82 133.08L460.07 137.59L468.14 142.38L476.02 147.46L483.71 152.8L491.19 158.42L498.47 164.28L505.52 170.4L512.36 176.77L518.97 183.37L525.34 190.2L531.47 197.25L537.35 204.53L542.97 212.01L548.33 219.69L553.42 227.57L558.23 235.64L562.77 243.89L567.01 252.32L570.95 260.91L574.59 269.67L577.92 278.58L580.94 287.64L583.63 296.84L585.99 306.18L588.01 315.64L589.69 325.22L591.02 334.92L591.99 344.72L592.59 354.63L592.83 364.62L592.61 375.37L591.96 386.02L590.89 396.55L589.4 406.95L587.51 417.21L585.22 427.34L582.54 437.31L579.48 447.12L576.05 456.77L572.25 466.24L568.1 475.52L563.6 484.61L558.77 493.49L553.61 502.17L548.12 510.63L542.32 518.85L536.22 526.85L529.82 534.59L523.14 542.09L516.18 549.32L508.94 556.29L501.45 562.97L493.7 569.37L485.71 575.47L477.48 581.27L469.02 586.75L460.35 591.92L451.46 596.75L442.37 601.25L433.09 605.4L423.62 609.19L413.98 612.63L404.16 615.69L394.19 618.36L384.07 620.65L373.8 622.55L363.4 624.04L352.87 625.11L342.23 625.76L331.47 625.98L320.72 625.76L310.08 625.11L299.55 624.04L289.15 622.55L278.88 620.65L268.76 618.36L258.79 615.69L248.97 612.63L239.33 609.19L229.86 605.4L220.58 601.25L211.49 596.75L202.6 591.92L193.93 586.75L185.47 581.27L177.24 575.47L169.25 569.37L161.5 562.97L154.01 556.29L146.77 549.32L139.81 542.09L133.13 534.59L126.73 526.85L120.63 518.85L114.83 510.63L109.34 502.17L104.18 493.49L99.34 484.61L94.85 475.52L90.7 466.24L86.9 456.77L83.47 447.12L80.41 437.31L77.73 427.34L75.44 417.21L73.55 406.95L72.06 396.55L70.99 386.02L70.34 375.37L70.12 364.62L70.16 359.85L70.29 355.1L70.5 350.37L70.8 345.66L71.18 340.97L71.64 336.31L72.19 331.67L72.81 327.05L73.52 322.46L74.3 317.9L75.17 313.36L76.11 308.85L77.13 304.37L78.23 299.92L79.4 295.5L80.65 291.11L81.97 286.75L83.36 282.42L84.83 278.12L86.37 273.86L87.99 269.64L89.67 265.45L91.43 261.29L93.25 257.18L95.14 253.1L97.11 249.06L99.13 245.06L101.23 241.1L103.39 237.18L105.62 233.3L107.91 229.46L110.26 225.67L112.68 221.92L115.16 218.21L117.7 214.56L120.31 210.94L122.97 207.38L125.69 203.86L128.48 200.39L131.31 196.97L119.2 184.86L100.72 203.35L100.57 203.49L100.43 203.62L100.28 203.76L100.12 203.88L99.97 204.01L99.82 204.12L99.66 204.24L99.5 204.35L99.34 204.45L99.17 204.55L99.01 204.65L98.84 204.74L98.67 204.83L98.5 204.91L98.33 204.99L98.16 205.07L97.98 205.14L97.81 205.21L97.63 205.28L97.45 205.34L97.27 205.4L97.09 205.45L96.91 205.5L96.72 205.55L96.54 205.59L96.36 205.63L96.17 205.67L95.98 205.71L95.8 205.74L95.61 205.77L95.42 205.79L95.23 205.81L95.04 205.83L94.85 205.85L94.66 205.87L94.47 205.88L94.28 205.89L94.09 205.89L93.9 205.9L93.71 205.9L93.51 205.9L93.32 205.89L93.13 205.89L92.94 205.88L92.75 205.87L92.56 205.85L92.37 205.83L92.18 205.81L91.99 205.79L91.8 205.77L91.61 205.74L91.43 205.71L91.24 205.67L91.06 205.63L90.87 205.59L90.69 205.55L90.5 205.5L90.32 205.45L90.14 205.4L89.96 205.34L89.78 205.28L89.6 205.21L89.43 205.14L89.25 205.07L89.08 204.99L88.91 204.91L88.74 204.83L88.57 204.74L88.4 204.65L88.24 204.55L88.07 204.45L87.91 204.35L87.75 204.24L87.59 204.12L87.44 204.01L87.29 203.88L87.13 203.76L86.98 203.62L86.84 203.49L86.69 203.35L49.72 166.37L49.44 166.08L49.18 165.79L48.93 165.48L48.69 165.17L48.47 164.86L48.26 164.54L48.06 164.21L47.89 163.88L47.72 163.55L47.57 163.21L47.43 162.86L47.31 162.52L47.2 162.17L47.11 161.82L47.03 161.47L46.97 161.11L46.92 160.76L46.88 160.4L46.86 160.04L46.85 159.68L46.86 159.32L46.88 158.96L46.92 158.61L46.97 158.25L47.03 157.9L47.11 157.54L47.2 157.19L47.31 156.84L47.43 156.5L47.57 156.16L47.72 155.82L47.89 155.48L48.06 155.15L48.26 154.83L48.47 154.5L48.69 154.19L48.93 153.88L49.18 153.58L49.44 153.28L49.72 152.99L100.08 103.9L100.37 103.62L100.67 103.36L100.97 103.11L101.28 102.87L101.6 102.65L101.92 102.44L102.24 102.25L102.57 102.07L102.91 101.9L103.25 101.75L103.59 101.62L103.93 101.49L104.28 101.39L104.63 101.29L104.99 101.22L105.34 101.15L105.7 101.1L106.06 101.06L106.41 101.04L106.77 101.04L107.13 101.04L107.49 101.06L107.85 101.1L108.2 101.15L108.56 101.22L108.91 101.29L109.26 101.39L109.61 101.49L109.96 101.62L110.3 101.75L110.64 101.9L110.97 102.07L111.3 102.25L111.63 102.44L111.95 102.65L112.27 102.87L112.57 103.11L112.88 103.36L113.18 103.62L113.47 103.9L150.44 140.88L150.72 141.17L150.98 141.46L151.23 141.77L151.47 142.08L151.69 142.39L151.9 142.71L152.09 143.04L152.27 143.37L152.44 143.71L152.59 144.04L152.73 144.39L152.85 144.73L152.96 145.08L153.05 145.43L153.13 145.78L153.19 146.14L153.24 146.5L153.28 146.85L153.3 147.21L153.31 147.57L153.3 147.93L153.28 148.29L153.24 148.64L153.19 149L153.13 149.36L153.05 149.71L152.96 150.06L152.85 150.41L152.73 150.75L152.59 151.1L152.44 151.43L152.27 151.77L152.09 152.1L151.9 152.43L151.69 152.75L151.47 153.06L151.23 153.37L150.98 153.68L150.72 153.97L150.44 154.26L132.59 172.11L143.43 182.95L146.56 179.82L149.74 176.74L152.97 173.71L156.25 170.74L159.58 167.81L162.95 164.95L166.38 162.13L169.84 159.38L173.35 156.68L176.91 154.03L180.51 151.45L184.16 148.92L187.85 146.45L191.58 144.05L195.35 141.7L199.16 139.42L203.02 137.2L206.91 135.04L210.85 132.95L214.82 130.92L218.83 128.95L222.88 127.06L226.97 125.23L231.09 123.47L235.25 121.77L239.44 120.15L243.67 118.6L247.93 117.12L252.23 115.71L256.55 114.37L260.91 113.11L265.31 111.92L269.73 110.81L274.18 109.77L278.67 108.81L283.18 107.92L287.72 107.12L292.29 106.39L296.89 105.75L301.51 105.18L301.51 77.13L275.38 77.13L275 77.12L274.62 77.1L274.24 77.06L273.87 77L273.5 76.93L273.14 76.84L272.78 76.74L272.43 76.63L272.08 76.5L271.73 76.35L271.4 76.2L271.06 76.03L270.74 75.85L270.42 75.66L270.11 75.45L269.81 75.23L269.52 75.01L269.23 74.77L268.95 74.52L268.69 74.26L268.43 74L268.18 73.72L267.94 73.43L267.71 73.14L267.5 72.84L267.29 72.53L267.1 72.21L266.92 71.88L266.75 71.55L266.59 71.22L266.45 70.87L266.32 70.52L266.21 70.17L266.11 69.81L266.02 69.44L265.95 69.08L265.89 68.7L265.85 68.33L265.83 67.95L265.82 67.57L265.82 21.67L265.83 21.29L265.85 20.91L265.89 20.54L265.95 20.17L266.02 19.8L266.11 19.43L266.21 19.08L266.32 18.72L266.45 18.37L266.59 18.03L266.75 17.69L266.92 17.36L267.1 17.03L267.29 16.72L267.5 16.41L267.71 16.1L267.94 15.81L268.18 15.52L268.43 15.25L268.69 14.98L268.95 14.72L269.23 14.47L269.52 14.24L269.81 14.01L270.11 13.79L270.42 13.59L270.74 13.39L271.06 13.21L271.4 13.04L271.73 12.89L272.08 12.75L272.43 12.62L272.78 12.5L273.14 12.4L273.5 12.31L273.87 12.24L274.24 12.19L274.62 12.14L275 12.12L275.38 12.11L386.93 12.11L387.31 12.12L387.69 12.14ZM310.96 123.19L301.18 124.18L291.53 125.56L281.99 127.31L272.6 129.43L263.34 131.9L254.24 134.73L245.29 137.9L236.51 141.41L227.91 145.25L219.48 149.41L211.24 153.88L203.2 158.66L195.37 163.74L187.74 169.1L180.34 174.75L173.16 180.67L166.22 186.86L159.52 193.31L153.07 200L146.89 206.95L140.97 214.12L135.32 221.53L129.95 229.15L124.88 236.99L120.1 245.03L115.63 253.27L111.47 261.69L107.63 270.3L104.12 279.08L100.95 288.03L98.12 297.13L95.64 306.38L93.52 315.78L91.77 325.31L90.4 334.97L89.41 344.74L88.81 354.63L88.61 364.62L88.81 374.61L89.41 384.5L90.41 394.28L91.79 403.93L93.55 413.46L95.68 422.86L98.17 432.11L101.01 441.22L104.19 450.16L107.72 458.94L111.57 467.55L115.75 475.98L120.24 484.22L125.03 492.26L130.12 500.09L135.5 507.72L141.16 515.12L147.1 522.3L153.3 529.24L159.76 535.94L166.47 542.38L173.42 548.57L180.61 554.49L188.02 560.14L195.65 565.51L203.49 570.58L211.53 575.36L219.76 579.83L228.18 583.99L236.78 587.83L245.55 591.34L254.49 594.51L263.57 597.34L272.81 599.82L282.18 601.93L291.68 603.68L301.31 605.06L311.04 606.05L320.89 606.65L330.84 606.85L340.83 606.65L350.71 606.05L360.49 605.06L370.15 603.68L379.68 601.93L389.07 599.82L398.33 597.34L407.43 594.51L416.38 591.34L425.16 587.83L433.77 583.99L442.19 579.83L450.43 575.36L458.47 570.58L466.31 565.51L473.93 560.14L481.34 554.49L488.51 548.57L495.45 542.38L502.15 535.94L508.6 529.24L514.79 522.3L520.71 515.12L526.36 507.72L531.72 500.09L536.8 492.26L541.57 484.22L546.05 475.98L550.21 467.55L554.04 458.94L557.55 450.16L560.73 441.22L563.56 432.11L566.03 422.86L568.15 413.46L569.9 403.93L571.27 394.28L572.27 384.5L572.87 374.61L573.07 364.62L572.89 355.24L572.35 345.96L571.47 336.76L570.25 327.67L568.69 318.68L566.81 309.81L564.6 301.06L562.07 292.44L559.24 283.95L556.11 275.61L552.67 267.41L548.95 259.36L544.95 251.48L540.67 243.76L536.12 236.22L531.31 228.86L526.24 221.69L520.92 214.71L515.36 207.93L509.56 201.35L503.53 195L497.28 188.86L490.8 182.95L484.12 177.27L477.23 171.84L470.15 166.65L462.87 161.71L455.41 157.04L447.76 152.63L439.95 148.5L431.97 144.64L423.83 141.08L415.54 137.8L407.11 134.83L398.53 132.16L389.82 129.81L380.99 127.78L372.03 126.07L362.96 124.7L353.78 123.67L353.59 123.66L353.4 123.66L353.21 123.66L353.02 123.65L352.83 123.64L352.64 123.63L352.45 123.61L352.25 123.6L352.06 123.58L351.87 123.57L351.68 123.55L351.49 123.53L351.3 123.51L351.11 123.49L350.92 123.46L350.73 123.44L350.53 123.42L350.34 123.39L350.15 123.37L349.77 123.32L349.58 123.3L349.39 123.28L349.2 123.25L349 123.23L348.81 123.21L348.62 123.19L348.43 123.17L348.24 123.15L348.05 123.13L347.86 123.11L347.67 123.09L347.47 123.08L347.28 123.07L347.09 123.06L346.9 123.05L346.71 123.04L346.52 123.03L346.33 123.03L346.14 123.03L345.75 122.98L345.37 122.94L344.99 122.89L344.61 122.86L344.22 122.82L343.84 122.78L343.46 122.75L343.08 122.72L342.69 122.69L342.31 122.66L341.93 122.63L341.55 122.61L341.16 122.59L340.78 122.57L340.4 122.55L340.02 122.53L339.63 122.51L339.25 122.5L338.87 122.48L338.49 122.47L338.1 122.46L337.72 122.45L337.34 122.44L336.96 122.43L336.57 122.42L336.19 122.42L335.81 122.41L335.43 122.41L335.04 122.4L334.66 122.4L334.28 122.4L333.9 122.4L333.51 122.39L333.13 122.39L332.75 122.39L332.37 122.39L331.98 122.39L331.6 122.39L331.22 122.39L330.84 122.39L320.85 122.59L310.96 123.19ZM108.37 168.29L129.4 147.25L105.82 123.67L70.12 159.36L93.71 183.59L108.37 168.29ZM284.94 58.01L311.08 58.01L311.46 58.02L311.84 58.04L312.21 58.07L312.58 58.12L312.95 58.18L313.32 58.26L313.68 58.35L314.03 58.45L314.38 58.57L314.73 58.7L315.07 58.84L315.41 58.99L315.74 59.15L316.06 59.33L316.38 59.52L316.69 59.72L316.99 59.93L317.28 60.16L317.57 60.39L317.85 60.64L318.12 60.89L318.38 61.16L318.63 61.44L318.88 61.73L319.11 62.02L319.34 62.33L319.55 62.65L319.75 62.97L319.95 63.31L320.13 63.66L320.3 64.01L320.46 64.37L320.61 64.74L320.74 65.12L320.86 65.51L320.97 65.91L321.07 66.31L321.15 66.72L321.22 67.14L321.27 67.57L321.27 103.9L341.67 103.9L341.67 67.57L341.68 67.19L341.71 66.81L341.75 66.43L341.8 66.06L341.87 65.69L341.96 65.33L342.06 64.97L342.18 64.62L342.31 64.27L342.45 63.92L342.61 63.59L342.77 63.26L342.96 62.93L343.15 62.61L343.35 62.3L343.57 62L343.8 61.71L344.04 61.42L344.28 61.14L344.54 60.88L344.81 60.62L345.09 60.37L345.37 60.13L345.67 59.91L345.97 59.69L346.28 59.48L346.6 59.29L346.92 59.11L347.25 58.94L347.59 58.78L347.93 58.64L348.28 58.51L348.64 58.4L349 58.3L349.36 58.21L349.73 58.14L350.1 58.08L350.48 58.04L350.85 58.02L351.24 58.01L377.37 58.01L377.37 31.24L284.94 31.24L284.94 58.01Z" id="cqMFaijtF"></path> <path d="M339.18 156.31L343.01 156.48L346.82 156.72L350.62 157.03L354.39 157.4L358.14 157.84L361.87 158.35L365.58 158.92L369.26 159.55L372.93 160.25L376.57 161.01L380.18 161.84L383.78 162.72L387.34 163.67L390.88 164.68L394.4 165.75L397.89 166.88L401.35 168.07L404.78 169.32L408.18 170.63L411.56 172L414.9 173.42L418.22 174.9L421.5 176.44L424.75 178.03L427.97 179.68L431.16 181.38L434.31 183.14L437.43 184.95L440.51 186.81L443.56 188.73L446.58 190.7L449.55 192.72L452.49 194.79L455.39 196.91L458.26 199.09L461.08 201.31L463.87 203.58L466.61 205.9L468.53 207.81L471.75 210.71L474.91 213.68L478.02 216.71L481.06 219.81L484.04 222.97L486.95 226.19L489.81 229.47L492.59 232.81L495.31 236.21L497.96 239.67L500.54 243.19L503.05 246.76L505.48 250.38L507.84 254.06L510.13 257.8L512.34 261.58L514.48 265.41L516.53 269.3L518.5 273.23L520.4 277.21L522.21 281.24L523.94 285.31L525.58 289.43L527.14 293.59L528.6 297.79L529.98 302.04L531.27 306.32L532.47 310.65L533.58 315.01L534.59 319.41L535.51 323.85L536.33 328.32L537.05 332.83L537.68 337.37L538.2 341.94L538.63 346.55L538.95 351.18L539.17 355.85L539.28 360.54L539.28 365.26L539.11 373.82L538.59 382.3L537.73 390.69L536.54 398.98L535.03 407.16L533.2 415.23L531.06 423.18L528.62 431L525.88 438.69L522.85 446.24L519.53 453.64L515.94 460.88L512.08 467.97L507.96 474.89L503.58 481.64L498.96 488.2L494.08 494.58L488.98 500.76L483.64 506.74L478.09 512.51L472.32 518.07L466.34 523.4L460.15 528.51L453.78 533.38L447.21 538.01L440.47 542.38L433.55 546.51L426.46 550.37L419.21 553.96L411.81 557.27L404.26 560.3L396.58 563.04L388.75 565.49L380.8 567.63L372.74 569.45L364.56 570.97L356.27 572.15L347.88 573.01L339.4 573.53L330.84 573.71L322.27 573.53L313.8 573.01L305.42 572.14L297.14 570.95L288.96 569.43L280.91 567.59L272.97 565.43L265.16 562.98L257.49 560.22L249.96 557.17L242.58 553.84L235.35 550.23L228.28 546.35L221.38 542.2L214.66 537.8L208.12 533.15L201.77 528.26L195.61 523.13L189.65 517.77L183.9 512.19L178.37 506.4L173.06 500.39L167.98 494.19L163.13 487.79L158.53 481.2L154.17 474.43L150.07 467.49L146.23 460.38L142.66 453.12L139.36 445.7L136.35 438.13L133.62 430.43L131.2 422.59L129.07 414.63L127.25 406.55L125.75 398.36L124.57 390.06L123.72 381.67L123.2 373.19L123.03 364.62L123.2 356.06L123.72 347.58L124.57 339.19L125.75 330.9L127.25 322.72L129.07 314.65L131.2 306.7L133.63 298.88L136.36 291.19L139.37 283.65L142.67 276.24L146.25 269L150.09 261.91L154.2 254.99L158.56 248.24L163.17 241.68L168.03 235.3L173.12 229.12L178.44 223.14L183.98 217.37L189.74 211.81L195.71 206.48L201.89 201.37L208.26 196.5L214.82 191.87L221.56 187.5L228.48 183.37L235.57 179.51L242.82 175.92L250.23 172.61L257.79 169.58L265.49 166.84L273.33 164.4L281.3 162.26L289.39 160.43L297.6 158.91L305.92 157.73L314.34 156.87L322.86 156.35L331.47 156.18L335.34 156.21L339.18 156.31ZM315.31 176.56L307.68 177.34L300.13 178.41L292.69 179.78L285.35 181.44L278.12 183.38L271 185.59L264.01 188.07L257.15 190.82L250.43 193.82L243.84 197.07L237.4 200.57L231.12 204.31L224.99 208.27L219.03 212.47L213.25 216.89L207.63 221.52L202.21 226.35L196.97 231.39L191.93 236.63L187.09 242.06L182.46 247.67L178.05 253.46L173.85 259.41L169.88 265.54L166.15 271.82L162.65 278.26L159.4 284.85L156.39 291.57L153.65 298.44L151.17 305.43L148.95 312.54L147.02 319.77L145.36 327.11L143.99 334.55L142.92 342.1L142.14 349.73L141.67 357.46L141.51 365.26L141.67 373.06L142.14 380.78L142.92 388.42L143.99 395.96L145.36 403.41L147.02 410.75L148.95 417.98L151.17 425.09L153.65 432.08L156.39 438.94L159.4 445.67L162.65 452.26L166.15 458.69L169.88 464.98L173.85 471.1L178.05 477.06L182.46 482.85L187.09 488.46L191.93 493.89L196.97 499.12L202.21 504.16L207.63 509L213.25 513.63L219.03 518.05L224.99 522.24L231.12 526.21L237.4 529.95L243.84 533.45L250.43 536.7L257.15 539.7L264.01 542.45L271 544.93L278.12 547.14L285.35 549.08L292.69 550.73L300.13 552.1L307.68 553.18L315.31 553.95L323.03 554.42L330.84 554.58L338.64 554.42L346.37 553.95L354.01 553.17L361.56 552.09L369.01 550.71L376.37 549.04L383.61 547.09L390.74 544.86L397.74 542.36L404.62 539.6L411.37 536.58L417.97 533.31L424.43 529.79L430.74 526.03L436.88 522.04L442.86 517.82L448.68 513.38L454.31 508.73L459.76 503.87L465.02 498.8L470.08 493.54L474.95 488.09L479.6 482.46L484.04 476.65L488.26 470.67L492.25 464.52L496.01 458.21L499.52 451.76L502.8 445.15L505.82 438.41L508.58 431.53L511.08 424.52L513.3 417.39L515.25 410.15L516.92 402.8L518.3 395.34L519.38 387.79L520.16 380.15L520.64 372.43L520.8 364.62L520.76 360.57L520.63 356.54L520.42 352.53L520.14 348.55L519.77 344.59L519.32 340.65L518.79 336.75L518.19 332.87L517.5 329.01L516.74 325.19L515.91 321.39L515 317.63L514.01 313.9L512.95 310.19L511.82 306.52L510.62 302.89L509.34 299.28L508 295.71L506.58 292.18L505.1 288.69L503.55 285.23L501.93 281.8L500.24 278.42L498.49 275.08L496.67 271.77L494.79 268.51L492.85 265.29L490.84 262.11L488.77 258.98L486.64 255.89L484.45 252.84L482.2 249.84L479.89 246.89L477.53 243.98L475.1 241.12L472.62 238.31L470.09 235.55L467.5 232.84L464.85 230.18L462.15 227.57L358.25 346.77L358.48 347.16L358.72 347.55L358.94 347.94L359.16 348.34L359.38 348.74L359.59 349.15L359.8 349.56L360 349.98L360.2 350.39L360.39 350.82L360.57 351.24L360.75 351.67L360.93 352.11L361.1 352.54L361.26 352.98L361.42 353.42L361.57 353.87L361.72 354.32L361.86 354.77L361.99 355.22L362.12 355.67L362.24 356.13L362.36 356.59L362.47 357.05L362.57 357.52L362.67 357.98L362.76 358.45L362.85 358.92L362.93 359.39L363 359.86L363.06 360.33L363.12 360.81L363.17 361.28L363.22 361.76L363.26 362.23L363.29 362.71L363.31 363.19L363.33 363.67L363.34 364.14L363.35 364.62L363.32 365.95L363.24 367.27L363.11 368.58L362.94 369.87L362.71 371.14L362.43 372.4L362.11 373.64L361.75 374.86L361.33 376.05L360.88 377.23L360.38 378.38L359.84 379.51L359.25 380.62L358.63 381.7L357.97 382.75L357.27 383.78L356.53 384.77L355.76 385.74L354.95 386.67L354.1 387.57L353.23 388.44L352.32 389.27L351.38 390.07L350.4 390.83L349.4 391.55L348.37 392.24L347.31 392.88L346.23 393.48L345.12 394.04L343.98 394.56L342.82 395.04L341.64 395.46L340.44 395.85L339.21 396.18L337.97 396.47L336.7 396.7L335.42 396.89L334.12 397.02L332.81 397.1L331.47 397.13L330.14 397.1L328.82 397.02L327.52 396.89L326.23 396.7L324.95 396.47L323.7 396.18L322.46 395.85L321.24 395.46L320.04 395.04L318.86 394.56L317.71 394.04L316.58 393.48L315.48 392.88L314.4 392.24L313.34 391.55L312.32 390.83L311.33 390.07L310.36 389.27L309.43 388.44L308.53 387.57L307.66 386.67L306.83 385.74L306.03 384.77L305.27 383.78L304.54 382.75L303.86 381.7L303.22 380.62L302.61 379.51L302.05 378.38L301.53 377.23L301.06 376.05L300.63 374.86L300.25 373.64L299.92 372.4L299.63 371.14L299.39 369.87L299.21 368.58L299.07 367.27L298.99 365.95L298.96 364.62L298.99 363.29L299.07 361.97L299.21 360.66L299.39 359.37L299.63 358.1L299.92 356.84L300.25 355.61L300.63 354.39L301.06 353.19L301.53 352.01L302.05 350.86L302.61 349.73L303.22 348.62L303.86 347.54L304.54 346.49L305.27 345.47L306.03 344.47L306.83 343.51L307.66 342.57L308.53 341.67L309.43 340.81L310.36 339.97L311.33 339.18L312.32 338.41L313.34 337.69L314.4 337.01L315.48 336.36L316.58 335.76L317.71 335.2L318.86 334.68L320.04 334.21L321.24 333.78L322.46 333.4L323.7 333.06L324.95 332.78L326.23 332.54L327.52 332.35L328.82 332.22L330.14 332.14L331.47 332.11L331.76 332.11L332.05 332.12L332.34 332.13L332.64 332.15L332.94 332.17L333.23 332.19L333.53 332.22L333.84 332.25L334.14 332.29L334.44 332.33L334.75 332.37L335.05 332.42L335.36 332.47L335.67 332.53L335.98 332.58L336.29 332.64L336.6 332.7L336.91 332.77L337.22 332.84L337.53 332.91L337.84 332.98L338.15 333.06L338.46 333.13L338.77 333.21L339.08 333.29L339.39 333.38L339.7 333.46L340.01 333.55L340.31 333.64L340.62 333.73L340.92 333.82L341.22 333.91L341.53 334L341.83 334.09L342.12 334.19L342.42 334.28L342.71 334.38L343.01 334.47L343.3 334.57L343.59 334.66L446.85 216.1L444.45 214.25L442.01 212.44L439.54 210.67L437.05 208.93L434.52 207.23L431.97 205.57L429.38 203.95L426.77 202.37L424.13 200.83L421.46 199.33L418.77 197.87L416.05 196.46L413.3 195.08L410.53 193.75L407.74 192.46L404.91 191.22L402.07 190.02L399.2 188.87L396.3 187.76L393.39 186.69L390.45 185.68L387.49 184.71L384.5 183.79L381.5 182.91L378.47 182.09L375.42 181.31L372.36 180.59L369.27 179.91L366.16 179.29L363.04 178.72L359.89 178.19L356.73 177.73L353.55 177.31L350.36 176.95L347.14 176.64L343.91 176.39L340.67 176.19L337.41 176.05L334.13 175.96L330.84 175.94L323.03 176.09L315.31 176.56ZM328.07 351.52L326.76 351.87L325.52 352.34L324.34 352.93L323.24 353.62L322.22 354.41L321.27 355.3L320.42 356.26L319.67 357.3L319.01 358.41L318.47 359.57L318.03 360.78L317.71 362.03L317.52 363.32L317.45 364.62L317.52 366.03L317.71 367.39L318.03 368.7L318.47 369.94L319.01 371.12L319.67 372.22L320.42 373.24L321.27 374.18L322.22 375.03L323.24 375.79L324.34 376.44L325.52 376.99L326.76 377.43L328.07 377.75L329.43 377.94L330.84 378.01L332.25 377.94L333.61 377.75L334.91 377.43L336.16 376.99L337.33 376.44L338.43 375.79L339.46 375.03L340.4 374.18L341.25 373.24L342 372.22L342.66 371.12L343.21 369.94L343.64 368.7L343.96 367.39L344.16 366.03L344.22 364.62L344.16 363.32L343.96 362.03L343.64 360.78L343.21 359.57L342.66 358.41L342 357.3L341.25 356.26L340.4 355.3L339.46 354.41L338.43 353.62L337.33 352.93L336.16 352.34L334.91 351.87L333.61 351.52L332.25 351.31L330.84 351.24L329.43 351.31L328.07 351.52Z" id="a3OgEqkzM"></path> </defs> <g> <g> <use xlink:href="#cqMFaijtF" opacity="1" fill="#e05a45" fill-opacity="1"></use> <g> <use xlink:href="#cqMFaijtF" opacity="1" fill-opacity="0" stroke="#000000" stroke-width="1" stroke-opacity="0"></use> </g> </g> <g> <use xlink:href="#a3OgEqkzM" opacity="1" fill="#e05a45" fill-opacity="1"></use> <g> <use xlink:href="#a3OgEqkzM" opacity="1" fill-opacity="0" stroke="#000000" stroke-width="1" stroke-opacity="0"></use> </g> </g> </g> </svg> 